<svg xmlns="http://www.w3.org/2000/svg" aria-hidden="true" style="position:absolute;width:0;height:0;overflow:hidden">
  <defs>
    <symbol id="icon-form-search" viewBox="0 0 32 32">
       <path d="M16 16c2.947 0 5.333-2.387 5.333-5.333s-2.387-5.333-5.333-5.333c-2.947 0-5.333 2.387-5.333 5.333s2.387 5.333 5.333 5.333zM16 18.667c-3.56 0-10.667 1.787-10.667 5.333v1.333c0 0.733 0.6 1.333 1.333 1.333h18.667c0.733 0 1.333-0.6 1.333-1.333v-1.333c0-3.547-7.107-5.333-10.667-5.333z"></path>
    </symbol>
    
     <symbol id="icon-downloads" viewBox="0 0 30 32">
      <path d="M24.024 27.564c.63 0 1.139-.509 1.139-1.139V19.37h2.715v7.224a3.683 3.683 0 0 1-3.685 3.685H4.484a3.683 3.683 0 0 1-3.685-3.685V19.37h2.715v7.055c0 .63.509 1.139 1.139 1.139h19.37zM8.994 4.291h10.642v9.527h4.073l-9.382 9.164-9.382-9.164h4.073V4.291h-.024z"/>
    </symbol>

    <symbol id="icon-heart" viewBox="0 0 34 32">
      <path d="M17.772 30.178c3.471-5.76 6.105-7.065 11.495-11.003 4.726-3.495 4.726-9.083 1.994-12.431-3.545-4.258-10.585-3.963-13.489 1.428-2.905-5.391-9.92-5.711-13.465-1.428-2.732 3.348-2.732 8.935 1.994 12.431 5.391 3.938 8.025 5.243 11.471 11.003z"/>
    </symbol>

    <symbol id="icon-search" viewBox="0 0 39 32">
      <path d="M17.233 25.521c-7.659 0-13.771-4.538-16.682-11.384C3.489 7.291 9.6 2.753 17.233 2.753s13.771 4.538 16.708 11.384c-2.938 6.846-9.075 11.384-16.708 11.384zm0-2.728c6.059 0 11.279-3.541 13.718-8.656-2.439-5.115-7.659-8.656-13.718-8.656-6.033 0-11.252 3.541-13.692 8.656a15.119 15.119 0 0 0 13.692 8.656zm-6.348-8.655c0-3.515 2.833-6.348 6.321-6.348a6.353 6.353 0 0 1 6.348 6.348c0 3.515-2.859 6.348-6.348 6.348s-6.321-2.859-6.321-6.348zm6.715-1.6c0 1.102.866 1.993 1.993 1.993 1.075 0 1.967-.892 1.967-1.993 0-1.075-.866-1.967-1.967-1.967s-1.993.866-1.993 1.967z"/>
    </symbol>
  </defs>
</svg>